#!OML:ASF E:\Style4\Style4.ASF
:FULLY-SPECIFIED
:DEGREES
2636
root -0.313371 17.3684 -1.98657 -2.69612 1.30852 1.48527
lowerback 8.76022 2.01148 -1.21836
upperback 6.25673 2.59152 0.575724
thorax 1.49525 1.25296 1.08701
lowerneck 4.95938 -4.95423 -6.2579
upperneck 1.66577 -6.922 5.30615
head 0.103398 -3.52497 2.84703
rclavicle 2.98177e-015 1.23246e-014
rhumerus -353.88 16.6768 -419.432
rradius 98.362
rwrist -16.5351
rhand -17.7893 18.2342
rfingers 7.12502
rthumb 8.4737 -11.5758
lclavicle 2.98177e-015 1.23246e-014
lhumerus 8.83807 -24.8011 59.7566
lradius 101.856
lwrist 24.6775
lhand -7.8697 25.4996
lfingers 7.12502
lthumb 18.0342 54.6835
rfemur -14.8529 -1.42429 17.2723
rtibia 41.5448
rfoot -22.868 -11.6079
rtoes -9.62196
lfemur -12.556 3.06304 -19.5666
ltibia 39.6529
lfoot -23.0303 5.66688
ltoes -15.0999
2637
root -0.313745 17.3794 -1.96127 -2.82184 1.19849 1.38958
lowerback 8.61851 2.02901 -1.15112
upperback 6.14986 2.62063 0.566211
thorax 1.46385 1.27038 1.04012
lowerneck 4.91385 -4.93994 -6.30477
upperneck 1.67222 -6.9039 5.35324
head 0.115608 -3.51618 2.86972
rclavicle 2.64384e-014 -1.35174e-014
rhumerus -353.599 17.4082 -418.466
rradius 99.3517
rwrist -18.6506
rhand -15.8643 18.9683
rfingers 7.12502
rthumb 10.3311 -10.7579
lclavicle 2.64384e-014 -1.35174e-014
lhumerus 9.22973 -24.5171 58.7928
lradius 102.86
lwrist 27.1441
lhand -5.93955 24.9409
lfingers 7.12502
lthumb 19.8905 53.943
rfemur -14.4704 -1.28878 17.376
rtibia 41.2428
rfoot -22.9007 -11.4857
rtoes -9.12032
lfemur -12.1817 2.94685 -19.4761
ltibia 39.4418
lfoot -23.1115 5.96698
ltoes -15.8183
2638
root -0.320905 17.3868 -1.94471 -2.8874 1.25241 1.24571
lowerback 8.46987 2.01952 -1.07345
upperback 6.04171 2.61475 0.564247
thorax 1.43608 1.27047 0.998034
lowerneck 4.81844 -4.96747 -6.2585
upperneck 1.64677 -6.93326 5.37552
head 0.125019 -3.52969 2.86588
rclavicle 0 -6.36111e-015
rhumerus -353.174 18.1924 -417.369
rradius 100.397
rwrist -20.4104
rhand -15.1134 19.5922
rfingers 7.12502
rthumb 11.0554 -10.0967
lclavicle 0 -6.36111e-015
lhumerus 9.97996 -24.2049 57.7174
lradius 104.075
lwrist 28.9718
lhand -3.9611 24.6707
lfingers 7.12502
lthumb 21.7913 53.4639
rfemur -14.1611 -1.25593 17.5661
rtibia 40.9414
rfoot -22.8681 -11.4903
rtoes -8.52516
lfemur -11.9383 2.79441 -19.3002
ltibia 39.2288
lfoot -23.0648 6.11001
ltoes -16.0778
2639
root -0.326502 17.3961 -1.92563 -2.9084 1.30583 1.14011
lowerback 8.12217 2.01656 -1.04962
upperback 6.00921 2.61655 0.583565
thorax 1.5931 1.27094 1.01659
lowerneck 4.66985 -4.98147 -6.28671
upperneck 1.576 -6.94446 5.41386
head 0.131373 -3.53384 2.88012
rclavicle -2.5842e-015 -1.74931e-014
rhumerus -352.498 18.9913 -416.111
rradius 101.549
rwrist -21.5184
rhand -14.984 19.8461
rfingers 7.12502
rthumb 11.1802 -9.836
lclavicle -2.5842e-015 -1.74931e-014
lhumerus 10.9601 -23.8138 56.581
lradius 105.341
lwrist 30.2781
lhand -2.01085 24.6054
lfingers 7.12502
lthumb 23.663 53.169
rfemur -13.8852 -1.2323 17.7119
rtibia 40.631
rfoot -22.7555 -11.6247
rtoes -8.30433
lfemur -11.7207 2.69591 -19.1672
ltibia 38.9892
lfoot -22.9887 6.11367
ltoes -15.8478
2640
root -0.327704 17.4091 -1.89888 -2.92047 1.30555 1.14335
lowerback 7.77253 2.01002 -1.11295
upperback 5.9055 2.60827 0.573129
thorax 1.67532 1.26497 1.05224
lowerneck 4.57827 -4.95051 -6.35335
upperneck 1.53592 -6.90114 5.42721
head 0.134582 -3.51155 2.8945
rclavicle 4.77083e-015 7.55382e-015
rhumerus -351.764 19.7878 -414.848
rradius 102.794
rwrist -22.0625
rhand -14.9045 20.1163
rfingers 7.12502
rthumb 11.2569 -9.56167
lclavicle 4.77083e-015 7.55382e-015
lhumerus 11.7896 -23.4014 55.5159
lradius 106.678
lwrist 31.4022
lhand -0.730415 24.3465
lfingers 7.12502
lthumb 24.8906 52.746
rfemur -13.5878 -1.21942 17.7107
rtibia 40.3055
rfoot -22.7112 -11.6328
rtoes -8.30244
lfemur -11.44 2.581 -19.1779
ltibia 38.7173
lfoot -23.0123 6.03648
ltoes -14.8842
2641
root -0.328712 17.4228 -1.87091 -2.92117 1.28178 1.14956
lowerback 7.42057 2.01473 -1.17445
upperback 5.75228 2.61528 0.558095
thorax 1.70758 1.26733 1.08008
lowerneck 4.4306 -4.94228 -6.37745
upperneck 1.67777 -6.88722 5.38567
head 0.203623 -3.50333 2.87728
rclavicle 1.89839e-014 2.3059e-014
rhumerus -351.05 20.4623 -413.604
rradius 104.108
rwrist -22.3385
rhand -14.9361 20.5548
rfingers 7.12502
rthumb 11.2264 -9.12485
lclavicle 1.89839e-014 2.3059e-014
lhumerus 12.6415 -22.9384 54.6109
lradius 108.019
lwrist 32.4756
lhand 0.117628 23.7995
lfingers 7.12502
lthumb 25.703 52.0841
rfemur -13.275 -1.23291 17.6988
rtibia 39.9251
rfoot -22.6984 -11.5484
rtoes -8.31032
lfemur -11.1532 2.41349 -19.2117
ltibia 38.4103
lfoot -23.0138 6.31785
ltoes -15.21
2642
root -0.329798 17.4381 -1.84342 -2.87378 1.21255 1.08268
lowerback 7.14988 2.03524 -1.13832
upperback 5.48931 2.64706 0.528331
thorax 1.58552 1.28672 1.03121
lowerneck 4.29647 -4.93806 -6.38294
upperneck 1.92814 -6.88168 5.39901
head 0.306789 -3.50008 2.87375
rclavicle 7.30534e-015 1.59028e-015
rhumerus -350.458 20.9943 -412.52
rradius 105.46
rwrist -22.2598
rhand -15.0055 21.1502
rfingers 7.12502
rthumb 11.1595 -8.53305
lclavicle 7.30534e-015 1.59028e-015
lhumerus 13.4793 -22.5233 53.7031
lradius 109.327
lwrist 33.4458
lhand 0.855699 23.2397
lfingers 7.12502
lthumb 26.4097 51.4201
rfemur -13.0067 -1.1812 17.7829
rtibia 39.5077
rfoot -22.6568 -11.4538
rtoes -8.50129
lfemur -10.9085 2.29002 -19.1526
ltibia 38.0806
lfoot -23.0534 6.49048
ltoes -15.1441
2643
root -0.332174 17.4545 -1.81481 -2.81321 1.12348 1.00621
lowerback 6.84253 2.04144 -1.15505
upperback 5.21912 2.65718 0.543392
thorax 1.47302 1.29293 1.0605
lowerneck 4.15466 -4.89399 -6.4962
upperneck 2.2262 -6.82889 5.45138
head 0.429006 -3.47416 2.90266
rclavicle 5.96354e-016 1.03368e-014
rhumerus -349.683 21.3834 -411.504
rradius 106.717
rwrist -21.8776
rhand -14.8139 21.9316
rfingers 7.12502
rthumb 11.3443 -7.74155
lclavicle 5.96354e-016 1.03368e-014
lhumerus 14.2665 -22.0761 52.8312
lradius 110.761
lwrist 34.0983
lhand 1.14901 23.0038
lfingers 7.12502
lthumb 26.6905 51.1418
rfemur -12.7595 -1.06478 17.9092
rtibia 39.0572
rfoot -22.4292 -11.684
rtoes -9.50056
lfemur -10.6731 2.21353 -19.0728
ltibia 37.7496
lfoot -23.0046 6.5754
ltoes -15.0612
2644
root -0.335028 17.4713 -1.78584 -2.73119 1.06661 0.969755
lowerback 6.49381 2.01061 -1.23432
upperback 4.93019 2.61566 0.569119
thorax 1.36283 1.27173 1.13964
lowerneck 3.90507 -4.81897 -6.64779
upperneck 2.73956 -6.73458 5.43792
head 0.634916 -3.4273 2.9107
rclavicle 1.1281e-014 3.57812e-015
rhumerus -348.796 21.6676 -410.555
rradius 107.997
rwrist -21.6315
rhand -14.3677 22.6324
rfingers 7.12502
rthumb 11.7745 -7.0166
lclavicle 1.1281e-014 3.57812e-015
lhumerus 15.0923 -21.6618 52.1334
lradius 112.106
lwrist 34.3557
lhand 0.842961 22.9224
lfingers 7.12502
lthumb 26.3975 51.1047
rfemur -12.5115 -1.00449 17.9781
rtibia 38.5817
rfoot -22.1947 -11.8565
rtoes -9.93855
lfemur -10.4729 2.09061 -19.042
ltibia 37.4295
lfoot -22.9634 6.62387
ltoes -14.7032
2645
root -0.336499 17.487 -1.75629 -2.68686 1.03763 0.936769
lowerback 6.13822 1.98874 -1.26122
upperback 4.69099 2.58933 0.555879
thorax 1.31224 1.2596 1.15001
lowerneck 3.46227 -4.75199 -6.71025
upperneck 3.41791 -6.63911 5.37595
head 0.922372 -3.37762 2.87971
rclavicle -1.1778e-014 -1.25234e-014
rhumerus -347.872 21.6788 -409.737
rradius 109.244
rwrist -21.5088
rhand -14.1443 23.0355
rfingers 7.12502
rthumb 11.99 -6.60113
lclavicle -1.1778e-014 -1.25234e-014
lhumerus 16.1914 -21.3101 51.4679
lradius 113.199
lwrist 34.3095
lhand 0.351017 22.9062
lfingers 7.12502
lthumb 25.9265 51.1583
rfemur -12.1907 -0.9708 18.0219
rtibia 38.0832
rfoot -22.0292 -11.8819
rtoes -9.92664
lfemur -10.2267 1.94093 -19.0294
ltibia 37.0972
lfoot -22.9689 6.86285
ltoes -14.934
2646
root -0.336954 17.5014 -1.72781 -2.71446 0.987862 0.801024
lowerback 5.89403 2.05057 -1.08327
upperback 4.45352 2.68196 0.498318
thorax 1.20981 1.31268 0.990482
lowerneck 2.98118 -4.76903 -6.6341
upperneck 4.2055 -6.65565 5.41473
head 1.25931 -3.38148 2.85616
rclavicle -5.2181e-016 1.47101e-014
rhumerus -347.149 21.341 -409.057
rradius 110.455
rwrist -21.3566
rhand -14.425 23.3383
rfingers 7.12502
rthumb 11.7192 -6.31386
lclavicle -5.2181e-016 1.47101e-014
lhumerus 17.4113 -20.9584 50.6341
lradius 114.378
lwrist 34.4451
lhand -0.340757 22.7586
lfingers 7.12502
lthumb 25.2639 51.1058
rfemur -11.7784 -0.89048 18.1854
rtibia 37.5732
rfoot -21.9149 -11.8916
rtoes -9.94521
lfemur -9.89627 1.8535 -18.8852
ltibia 36.7415
lfoot -22.9526 7.06635
ltoes -15.2458
2647
root -0.337596 17.5188 -1.69861 -2.71125 0.912092 0.66626
lowerback 5.80145 2.15532 -0.840823
upperback 4.06003 2.83208 0.358774
thorax 0.869506 1.39791 0.69852
lowerneck 2.62126 -4.82104 -6.35689
upperneck 5.09002 -6.72686 5.41609
head 1.6024 -3.40996 2.78664
rclavicle 9.31803e-015 4.96962e-015
rhumerus -346.699 20.8841 -408.685
rradius 111.632
rwrist -21.2392
rhand -14.9431 23.4573
rfingers 7.12502
rthumb 11.2197 -6.22266
lclavicle 9.31803e-015 4.96962e-015
lhumerus 18.4744 -20.6421 49.6969
lradius 115.718
lwrist 34.5577
lhand -1.5197 22.5456
lfingers 7.12502
lthumb 24.134 51.0475
rfemur -11.402 -0.756134 18.3503
rtibia 37.0556
rfoot -21.8033 -11.9125
rtoes -9.73503
lfemur -9.57762 1.78491 -18.7433
ltibia 36.3635
lfoot -22.8518 7.11178
ltoes -14.735
2648
root -0.337972 17.537 -1.66906 -2.68238 0.886117 0.701672
lowerback 5.77942 2.20397 -0.768467
upperback 3.59587 2.89867 0.160558
thorax 0.415859 1.43765 0.440674
lowerneck 2.28484 -4.83705 -6.05943
upperneck 6.0552 -6.75408 5.33194
head 1.96275 -3.41548 2.68744
rclavicle 3.639e-014 -4.96962e-015
rhumerus -346.232 20.5126 -408.489
rradius 112.759
rwrist -21.1485
rhand -15.7189 23.282
rfingers 7.12502
rthumb 10.4714 -6.43716
lclavicle 3.639e-014 -4.96962e-015
lhumerus 19.4828 -20.252 48.96
lradius 116.898
lwrist 34.3648
lhand -2.64559 22.6279
lfingers 7.12502
lthumb 23.0541 51.2689
rfemur -11.0501 -0.697811 18.3145
rtibia 36.5215
rfoot -21.6409 -11.9791
rtoes -9.82949
lfemur -9.27968 1.62146 -18.8129
ltibia 35.9765
lfoot -22.7729 7.2528
ltoes -14.5425
2649
root -0.339644 17.553 -1.64269 -2.69635 0.885821 0.665968
lowerback 5.64006 2.20486 -0.726889
upperback 3.28264 2.90174 0.0824004
thorax 0.176757 1.44195 0.335071
lowerneck 1.76845 -4.82079 -5.99918
upperneck 7.03921 -6.73549 5.28006
head 2.37496 -3.39943 2.64148
rclavicle 3.16813e-015 3.77691e-015
rhumerus -345.47 20.1238 -408.142
rradius 113.724
rwrist -21.0898
rhand -16.6712 23.4851
rfingers 7.12502
rthumb 9.55262 -6.27838
lclavicle 3.16813e-015 3.77691e-015
lhumerus 20.5687 -19.623 48.4678
lradius 117.773
lwrist 33.7114
lhand -3.52616 22.566
lfingers 7.12502
lthumb 22.2089 51.3101
rfemur -10.6599 -0.63729 18.3675
rtibia 36.0075
rfoot -21.5152 -12.0253
rtoes -9.88739
lfemur -8.94487 1.51684 -18.7859
ltibia 35.5632
lfoot -22.7402 7.43415
ltoes -14.979
2650
root -0.340066 17.5696 -1.61672 -2.7117 0.893218 0.529814
lowerback 5.35635 2.21752 -0.564765
upperback 3.07402 2.92777 0.0565969
thorax 0.128696 1.45776 0.223489
lowerneck 1.17454 -4.81621 -6.06387
upperneck 8.01237 -6.73395 5.31083
head 2.81533 -3.39209 2.64674
rclavicle 1.34055e-014 -6.31141e-015
rhumerus -344.644 19.4995 -407.767
rradius 114.554
rwrist -21.0166
rhand -17.5818 24.1446
rfingers 7.12502
rthumb 8.67391 -5.65719
lclavicle 1.34055e-014 -6.31141e-015
lhumerus 21.7693 -18.95 48.053
lradius 118.381
lwrist 32.5993
lhand -4.77277 22.2602
lfingers 7.12502
lthumb 21.0117 51.142
rfemur -10.2728 -0.54655 18.5356
rtibia 35.5153
rfoot -21.4637 -12.0439
rtoes -9.88632
lfemur -8.60679 1.40036 -18.6509
ltibia 35.1447
lfoot -22.7227 7.61144
ltoes -15.2207
